<svg height="50" viewBox="0 0 170 50" width="170" xmlns="http://www.w3.org/2000/svg" xmlns:xlink="http://www.w3.org/1999/xlink">
 <g fill="#27d17f" fill-rule="evenodd" transform="translate(1 .763027)">
  <path d="m46.8025775 32.7726991c-1.8946872 0-3.3971274-.5866101-4.509081-1.7605345v1.4517367h-3.3971274v-21.4739436l3.3971274-1.07146129v8.52415599c1.1119536-1.1531501 2.6143938-1.7295491 4.509081-1.7295491 2.2439773 0 4.0921864.7827336 5.5435711 2.3471446 1.4517367 1.5651152 2.177429 3.4590982 2.177429 5.6826533s-.7256923 4.1182423-2.177429 5.6826533c-1.4513847 1.5651151-3.2995938 2.3471446-5.5435711 2.3471446m-.3707686-3.0883297c1.3383584 0 2.4401009-.4788654 3.3045233-1.436244.8651267-.9573787 1.2975139-2.1256694 1.2975139-3.5052242 0-1.3792028-.4323872-2.5478456-1.2975139-3.5055763-.8644224-.9570266-1.9661649-1.435892-3.3045233-1.435892-1.7707456 0-3.1499483.7101996-4.1383124 2.130951v5.5900492c.9675898 1.4415256 2.3471446 2.1619363 4.1383124 2.1619363">
  </path>
  <path d="m59.4029342 14.2731081c-.6175955 0-1.1482206-.2211231-1.5904668-.6640736-.4429505-.4425984-.6640737-.9830825-.6640737-1.6214523 0-.6175955.2211232-1.1475164.6640737-1.5904669.4422462-.44259835.9728713-.66407359 1.5904668-.66407359.6380177 0 1.1785018.22147524 1.6214523.66407359.4422463.4429505.6640736.9728714.6640736 1.5904669 0 .6383698-.2218273 1.1788539-.6640736 1.6214523-.4429505.4429505-.9834346.6640736-1.6214523.6640736zm-1.6985637 18.1908988h3.3971274v-15.4420002h-3.3971274z">
  </path>
  <path d="m72.6830333 32.6183002c-1.5858895 0-2.8774176-.4369647-3.8759927-1.3126545-.9989273-.8749857-1.4978628-2.1464437-1.4978628-3.814022v-7.4431878h-3.8295147v-3.0267109h3.8295147v-3.4020569l3.3971274-1.0760387v4.4780956h4.7256267v3.0267109h-4.7256267v6.887211c0 1.7503234.8031558 2.624957 2.4091154 2.624957.8440002 0 1.5749742-.1852083 2.1925697-.5559768l1.0193495 2.8415027c-1.0707571.5151323-2.2851738.7721704-3.6443065.7721704">
  </path>
  <path d="m78.5814225 39.5264263v-22.5045605h3.3971274v1.4207514c1.1119536-1.1531501 2.6147458-1.7295491 4.5094331-1.7295491 2.2439773 0 4.0918343.7827336 5.543571 2.3471446 1.4513847 1.5651152 2.1774291 3.4590982 2.1774291 5.6826533 0 2.223555-.7260444 4.1182423-2.1774291 5.6826532-1.4517367 1.5651152-3.2995937 2.3471447-5.543571 2.3471447-1.8946873 0-3.3974795-.5866101-4.5094331-1.7601824v7.4428356zm7.5357919-9.8420921c1.3380062 0 2.4397487-.4788654 3.3045233-1.436244.8647745-.9573787 1.2971618-2.1256694 1.2971618-3.5052242 0-1.3792028-.4323873-2.5478456-1.2971618-3.5052242-.8647746-.9573787-1.9665171-1.4362441-3.3045233-1.4362441-1.7710977 0-3.1503004.7101996-4.1386645 2.130951v5.5900491c.9675898 1.4415257 2.3474967 2.1619364 4.1386645 2.1619364z">
  </path>
  <path d="m103.998823 32.7726991c-2.24433 0-4.0872574-.7820295-5.5284309-2.3471446-1.4411735-1.564411-2.1615843-3.4590982-2.1615843-5.6826533s.7204108-4.1175381 2.1615843-5.6826533c1.4411735-1.564411 3.2841009-2.3471446 5.5284309-2.3471446 1.893983 0 3.397127.576399 4.509081 1.7295491v-1.4207514h3.397479v15.4420003h-3.397479v-1.4517367c-1.111954 1.1739244-2.615098 1.7605345-4.509081 1.7605345m.401401-3.0883297c1.770746 0 3.139738-.7204107 4.10768-2.1619363v-5.5900492c-.988365-1.4207514-2.357708-2.130951-4.10768-2.130951-1.338358 0-2.439748.4788654-3.304523 1.435892-.864774.9577307-1.2971617 2.1263735-1.2971617 3.5055763 0 1.3795548.4323877 2.5478455 1.2971617 3.5052242.864775.9573786 1.966165 1.436244 3.304523 1.436244">
  </path>
  <path d="m115.579865 32.4638661v-15.4420003h3.397127v1.6365929c1.050335-1.2968097 2.563691-1.9453906 4.540067-1.9453906 1.832364 0 3.299241.5918917 4.400984 1.7756751 1.10139 1.1841355 1.652438 2.7643913 1.652438 4.7407673v9.2343556h-3.397128v-8.6783788c0-1.2556132-.293657-2.2341183-.880267-2.9341068-.586962-.6996364-1.426033-1.0499828-2.517212-1.0499828-1.811942 0-3.078119.8137191-3.798882 2.4397487v10.2227197z">
  </path>
  <path d="m140.225271 32.7726991c-2.24433 0-4.087257-.7820295-5.528431-2.3471446-1.441173-1.564411-2.161584-3.4590982-2.161584-5.6826533s.720411-4.1175381 2.161584-5.6826533c1.441174-1.564411 3.284101-2.3471446 5.528431-2.3471446 1.893983 0 3.397127.576399 4.509081 1.7295491v-7.4530468l3.397479-1.07110919v22.54540489h-3.397479v-1.4517367c-1.111954 1.1739244-2.615098 1.7605345-4.509081 1.7605345m.401402-3.0883297c1.770745 0 3.139737-.7204107 4.107679-2.1619363v-5.5900492c-.988364-1.4207514-2.357708-2.130951-4.107679-2.130951-1.338359 0-2.439749.4788654-3.304524 1.435892-.864774.9577307-1.297162 2.1263735-1.297162 3.5055763 0 1.3795548.432388 2.5478455 1.297162 3.5052242.864775.9573786 1.966165 1.436244 3.304524 1.436244">
  </path>
  <path d="m159.033448 32.7726991c-2.244329 0-4.087257-.7820295-5.52843-2.3471446-1.441174-1.564411-2.161585-3.4590982-2.161585-5.6826533s.720411-4.1175381 2.161585-5.6826533c1.441173-1.564411 3.284101-2.3471446 5.52843-2.3471446 1.893983 0 3.397128.576399 4.509081 1.7295491v-1.4207514h3.39748v15.4420003h-3.39748v-1.4517367c-1.111953 1.1739244-2.615098 1.7605345-4.509081 1.7605345m.401402-3.0883297c1.770746 0 3.139737-.7204107 4.107679-2.1619363v-5.5900492c-.988364-1.4207514-2.357708-2.130951-4.107679-2.130951-1.338358 0-2.439749.4788654-3.304523 1.435892-.864775.9577307-1.297162 2.1263735-1.297162 3.5055763 0 1.3795548.432387 2.5478455 1.297162 3.5052242.864774.9573786 1.966165 1.436244 3.304523 1.436244">
  </path>
  <path d="m18.4484298 7.80134804h-.0003521l-.6679468.21091203v2.51545173c0 1.2626553-.8309723 2.4066506-2.0203894 2.7816445l-6.86960561 2.1661617v3.7284599l9.02872521-2.8467843c2.1415141-.6668904 3.4200143-2.5154517 3.4200143-4.9453414v-1.66828249c0-1.13906583-1.3056124-2.44397401-2.8904456-1.94222167">
  </path>
  <path d="m4.08204573 6.73791477 12.76281887-4.02387767c1.3943433-.4387252 2.499959-.41478193 3.1675537-.3369663l-1.6003259-1.16864281c-.737664-.53449827-2.9872749-1.78518199-5.7611731-.90104156l-12.12515327 3.82317674z">
  </path>
  <path d="m23.5269733 17.779952s2.2541884-2.0460932 2.2541884-6.4432042v-1.86053287c0-2.89537505-3.3341003-7.59952325-8.672393-5.9132833l-12.6635247 3.99254016v23.48236131l3.5559276-1.1211083v-5.7724406l11.4290379-3.6031099c2.1302468-.6647778 3.9059219 1.0059694 3.9059219 2.8640375v2.2886949c0 2.3298914-2.0573607 5.6337104-5.2837162 6.6470741l-17.52647312 5.5256136 3.5559276 2.6073516 15.78847342-4.9777353c3.333044-1.0601938 7.0217159-3.919654 7.0217159-9.9906812v-2.3376377c0-3.6710666-3.3650857-5.3879398-3.3650857-5.3879398m-5.3418138-.5746385-10.1839879 3.2108629v-10.253353l10.1769458-3.2087502c2.124613-.66512994 4.0471167 1.03272954 4.0471167 2.78833455l.0007042 1.66933885c0 2.9203746-1.5978611 5.0270302-4.0407788 5.7935669">
  </path>
  <path d="m22.4471671 25.6939419v-2.285878c0-1.2915281-1.2478669-2.4936211-2.7520676-2.0179246l-.80386.2535169v3.1647369c0 1.5594814-.9992794 2.9224872-2.4869311 3.3914936l-12.84767659 4.0502857-.00035211-24.79536798-3.5562797-2.6073516v32.25264008l17.7845675-5.6069503c2.7890387-.8792109 4.6625996-3.7083899 4.6625996-5.7992007">
  </path>
 </g>
</svg>